<?xml version="1.0" encoding="utf-8"?>
<!-- Generator: Adobe Illustrator 21.1.0, SVG Export Plug-In . SVG Version: 6.00 Build 0)  -->
<svg version="1.1" id="图层_1" xmlns="http://www.w3.org/2000/svg" xmlns:xlink="http://www.w3.org/1999/xlink" x="0px" y="0px"
	 viewBox="0 0 841.9 595.3" style="enable-background:new 0 0 841.9 595.3;" xml:space="preserve">
<style type="text/css">
	.st0{fill:url(#SVGID_1_);}
	.st1{fill:url(#SVGID_2_);}
	.st2{fill:#192329;}
</style>
<g>
	
		<linearGradient id="SVGID_1_" gradientUnits="userSpaceOnUse" x1="356.0526" y1="482.5847" x2="444.2323" y2="407.2219" gradientTransform="matrix(1 0 0 1 -98.2315 -144.7197)">
		<stop  offset="0" style="stop-color:#013A5C"/>
		<stop  offset="1" style="stop-color:#17BEA1"/>
	</linearGradient>
	<path class="st0" d="M312.5,263L292,242.5c-4.5-4.5-11.8-4.5-16.3,0L255,263.1l-5.5,5.5l-28.9,28.9l-30.8,30.8
		c-1.4,1.4-0.4,3.9,1.6,3.9H243c0.6,0,1.2-0.2,1.6-0.7l4.8-4.9l28.9-29.2l3.8-3.8c0.9-0.9,2.4-0.9,3.2,0l37.5,37.8
		c0.4,0.4,1,0.7,1.6,0.7h29.5c10.3,0,15.4-12.4,8.1-19.7L312.5,263z"/>
	
		<linearGradient id="SVGID_2_" gradientUnits="userSpaceOnUse" x1="355.1006" y1="409.6028" x2="302.2954" y2="498.2951" gradientTransform="matrix(1 0 0 1 -98.2315 -144.7197)">
		<stop  offset="0" style="stop-color:#009589"/>
		<stop  offset="1" style="stop-color:#004365"/>
	</linearGradient>
	<path class="st1" d="M278.3,297.5l-28.9-28.9l-5.6-5.6l-20.6-20.6c-4.5-4.5-11.8-4.5-16.3,0l-20.6,20.6l-49.5,49.5
		c-7.3,7.3-2.1,19.7,8.1,19.7h29.4c0.6,0,1.2-0.2,1.6-0.7l37.5-37.8c0.9-0.9,2.4-0.9,3.2,0l3.8,3.8l28.9,29.1l4.8,4.9
		c0.4,0.4,1,0.7,1.6,0.7h51.6c2,0,3.1-2.5,1.6-3.9L278.3,297.5z"/>
</g>
<g>
	<path class="st2" d="M397,275.7l11.1,0c1.4,0,2.4,1.3,2,2.6l-13.9,52.9c-0.2,0.9-1.1,1.6-2,1.6l-11.1,0c-1.4,0-2.4-1.3-2-2.6
		l13.9-52.9C395.3,276.3,396.1,275.7,397,275.7z"/>
	<path class="st2" d="M400.5,322.2l3.9,0c5-0.1,7.9,0,10.3-1.3c2.1-1.2,4-3.7,4.6-6c0.5-1.9,0.2-3.2,0-3.6c-0.8-2.9-3.3-3.2-6-3.3
		l-9.1,0l2.7-10.3l7.4,0c3.9,0.1,5.9-0.1,7.8-2c0.5-0.5,1.7-1.8,2.2-3.5c0.3-1.3,0.3-2.3-0.1-3.3c-1-2.4-3.7-2.5-6.2-2.5l-8.2,0
		l2.8-10.6l10.2,0.1c0.7,0,1.5,0,2.2,0.1c1.7,0.1,8.4,0.4,10.8,6.1c0.6,1.4,1.4,4,0.3,8.3c-0.6,2.2-2.2,6.9-7.6,10.4l-2.5,1.6
		c1.2,0.8,1.8,1.3,2.3,1.8c1.6,1.6,4.1,5.2,2.3,12.1c-1.9,7.1-7.4,13.3-14.3,15.5c-2.1,0.6-3.7,0.9-7.8,1.1l-11.2-0.1L400.5,322.2z"
		/>
	<path class="st2" d="M449.7,314.4c-0.1-0.8-0.1-2.7,0.4-3.8c0.2-0.4,0.5-0.7,0.9-0.8l15.4-4.5c0.1-1.4,0.1-2.2,0-2.8
		c-0.1-1.1-0.4-2.8-2.2-4c-1.4-0.8-2.7-0.9-3.4-0.9c-0.6,0-1.7,0-3.3,0.6c-6.4,2.4-8.6,11.1-8.8,12.1c-0.2,0.9-2.4,8.7,1.1,12.1
		c0.6,0.7,2,1.6,4.5,1.6c0.8,0,3.8-0.1,6.5-2.4c1-0.9,1.6-1.7,2-2.2c0.1-0.1,0.1-0.1,0.2-0.1l10.6,0.9c0.2,0,0.3,0.2,0.2,0.4
		c-1.3,2.1-4.2,6.4-9.2,9.7c-5.7,3.7-11.5,3.8-13.3,3.8c-1.5,0-5.8-0.2-9.4-2.5c-6-3.9-7-12.2-4.8-20.6c0.7-2.7,3-10.2,9.5-16.2
		c7-6.6,14.4-7,17-7c3.4,0,12,1,13.7,11.4c0.3,1.5,0.5,3.5,0.1,7c-0.4,3.4-1,6.4-1.4,8c-0.1,0.3-0.3,0.5-0.7,0.5l-25-0.1
		C449.9,314.8,449.8,314.6,449.7,314.4z"/>
	<path class="st2" d="M575,276.6c0.6,0,1.1,0.6,0.9,1.2l-8.9,33.8c-0.6,2.4-1.4,5.6-1,7.8c0.6,4.3,4.2,6.6,5.3,6.6l-2.4,9
		c-1.1,0-16-0.1-19.8-5.7c-1-1.5-1.5-3.4-1.6-5.4c-0.3-3.6,0.6-7.4,1.6-11.2l9.4-35.6c0.1-0.4,0.5-0.7,0.9-0.7L575,276.6z
		 M573.2,326.1c4-0.3,5.8-1.6,7.3-3.2c3.3-3.6,3.8-8,4.8-11.7l8.9-33.8c0.1-0.4,0.5-0.7,0.9-0.7l9.8,0.1c0.6,0,1.1,0.6,0.9,1.2
		l-8.8,33.4c-0.4,1.5-0.7,2.8-1.2,4.3c-0.4,1.7-2.4,8.9-7.8,13.5c-6.5,5.6-15.7,5.7-17,5.8L573.2,326.1z"/>
	<path class="st2" d="M617.2,276.8l16,0.2c0.3,0,0.4,0.2,0.4,0.5l-14.8,56.3c0,0.2-0.2,0.3-0.4,0.3l-16-0.2c-0.3,0-0.4-0.2-0.4-0.5
		l14.8-56.3C616.8,276.9,617,276.8,617.2,276.8z"/>
	<path class="st2" d="M547.5,294.8l-26.6,8c0-1.1-0.2-2-0.3-2.7c-1.7-10.4-10.2-11.4-13.7-11.4c-2.6,0-10,0.4-17,7
		c-6.5,6-8.8,13.5-9.5,16.2c-2.2,8.4-1.2,16.7,4.8,20.6c3.6,2.3,7.8,2.5,9.4,2.5c1.8,0,7.6-0.1,13.3-3.8c5-3.2,7.9-7.6,9.2-9.7
		c0.1-0.2,0-0.4-0.2-0.4l-10.6-0.9c-0.1,0-0.2,0-0.2,0.1c-0.4,0.5-0.9,1.3-2,2.2c-2.6,2.3-5.7,2.4-6.5,2.4c-2.5,0-3.8-1-4.5-1.6
		c-3.4-3.3-1.3-11.2-1.1-12.1c0.3-1,2.4-9.7,8.8-12.1c1.6-0.6,2.7-0.6,3.3-0.6c0.7,0,2,0.1,3.4,0.9c1.9,1.2,2.2,2.9,2.2,4
		c0.1,0.6,0.1,1.4,0,2.8l-15.4,4.5c-0.4,0.1-0.7,0.4-0.9,0.8c-0.4,1.1-0.5,3-0.4,3.8c0,0.2,0.2,0.3,0.4,0.3l9.6,0.1c0,0,0,0,0,0
		l39.5,0.3c0.6,0,1.1-0.4,1.2-0.9l5.1-18.5C549.4,295.4,548.4,294.6,547.5,294.8z"/>
</g>
</svg>
